<svg xmlns="http://www.w3.org/2000/svg" width="90" height="110" viewBox="0 0 90 110"><defs><style>.a{fill:#fff;stroke:#707070;}.b,.c,.d{fill:#eb675e;}.c,.d{font-size:12px;letter-spacing:0.003em;}.c{font-family:WorkSans-Bold, Work Sans;font-weight:700;}.d{font-family:WorkSans-Regular, Work Sans;}.e{stroke:none;}.f{fill:none;}</style></defs><g transform="translate(-3651 -4287)"><g class="a" transform="translate(3651 4287)"><rect class="e" width="90" height="110" rx="5"/><rect class="f" x="0.5" y="0.5" width="89" height="109" rx="4.5"/></g><path class="b" d="M10.926,6.384,7.551.759A1.562,1.562,0,0,0,6.211,0H.783a.781.781,0,0,0-.64,1.229L5.576,8.991a10.105,10.105,0,0,1,5.35-2.607ZM24.218,0H18.791a1.562,1.562,0,0,0-1.34.759L14.075,6.384a10.108,10.108,0,0,1,5.35,2.606l5.433-7.761A.781.781,0,0,0,24.218,0ZM12.5,7.813a8.594,8.594,0,1,0,8.594,8.594A8.594,8.594,0,0,0,12.5,7.813Zm4.518,7.679-1.852,1.8.438,2.55a.561.561,0,0,1-.813.59l-2.291-1.2-2.29,1.2a.56.56,0,0,1-.813-.59l.438-2.55-1.852-1.8a.561.561,0,0,1,.31-.957l2.56-.373L12,11.841a.562.562,0,0,1,1.006,0l1.144,2.32,2.56.373A.561.561,0,0,1,17.018,15.491Z" transform="translate(3683.999 4296)"/><text class="c" transform="translate(3658 4346)"><tspan x="0" y="0">Achievement</tspan></text><text class="d" transform="translate(3673 4374)"><tspan x="0" y="0">Season</tspan></text><text class="d" transform="translate(3682 4388)"><tspan x="0" y="0">Year</tspan></text></g></svg>