<svg xmlns="http://www.w3.org/2000/svg" viewBox="0 0 576.74 512.72"><defs><style>.cls-1,.cls-2{fill:#ef7818;}.cls-1{opacity:0.4;isolation:isolate;}</style></defs><g id="Layer_2" data-name="Layer 2"><g id="Layer_1-2" data-name="Layer 1"><path class="cls-1" d="M510.64,93.35l-95.32,76.28a49.49,49.49,0,0,1,.7,7.09,48,48,0,1,1-96,0,46.93,46.93,0,0,1,.71-7.1L225.4,93.35a45.15,45.15,0,0,1-29.66,1.59L94.24,196.44A47.92,47.92,0,1,1,48,160.72,48.14,48.14,0,0,1,60.3,162.5L161.8,61A47.7,47.7,0,0,1,160,48.72a48,48,0,1,1,96,0,48.38,48.38,0,0,1-.71,7.1l95.32,76.26a46.53,46.53,0,0,1,34.76,0l95.34-76.27a48.11,48.11,0,0,1-.71-7.09,48.36,48.36,0,1,1,30.62,44.63Z"/><path class="cls-2" d="M400,320.72H336a16,16,0,0,0-16,16v160a16,16,0,0,0,16,16h64a16,16,0,0,0,16-16v-160A16,16,0,0,0,400,320.72Zm160-128H496a16,16,0,0,0-16,16v288a16,16,0,0,0,16,16h64a16,16,0,0,0,16-16v-288A16,16,0,0,0,560,192.72Zm-320,0H176a16,16,0,0,0-16,16v288a16,16,0,0,0,16,16h64a16,16,0,0,0,16-16v-288A16,16,0,0,0,240,192.72Zm-160,160H16a16,16,0,0,0-16,16v128a16,16,0,0,0,16,16H80a16,16,0,0,0,16-16v-128A16,16,0,0,0,80,352.72Z"/></g></g></svg>