<svg xmlns="http://www.w3.org/2000/svg" viewBox="0 0 352.01 512"><defs><style>.cls-1,.cls-2{fill:#ef7818;}.cls-1{opacity:0.4;isolation:isolate;}</style></defs><g id="Layer_2" data-name="Layer 2"><g id="Layer_1-2" data-name="Layer 1"><path class="cls-1" d="M175.45,0C73.44.31,0,83,0,176A175,175,0,0,0,43.56,291.78C60.08,310.63,85.92,350,95.77,383.23a5.23,5.23,0,0,0,.11.78H256.12a5.42,5.42,0,0,1,.11-.78c9.85-33.22,35.69-72.6,52.21-91.45A175.9,175.9,0,0,0,175.45,0ZM176,96a80.09,80.09,0,0,0-80,80,16,16,0,0,1-32,0A112.12,112.12,0,0,1,176,64a16,16,0,0,1,0,32Z"/><path class="cls-2" d="M96.06,454.35,96,416H256v38.35A32,32,0,0,1,250.59,472L233.5,497.73A32,32,0,0,1,206.86,512H145.15a32,32,0,0,1-26.64-14.28L101.42,472A32,32,0,0,1,96.06,454.35Z"/></g></g></svg>