<svg xmlns="http://www.w3.org/2000/svg" viewBox="0 0 512.01 512"><defs><style>.cls-1,.cls-2{fill:#ef7818;}.cls-1{opacity:0.4;isolation:isolate;}</style></defs><g id="Layer_2" data-name="Layer 2"><g id="Layer_1-2" data-name="Layer 1"><path class="cls-1" d="M512,128V488.12A23.94,23.94,0,0,1,488,512H224V420.81A61.78,61.78,0,0,0,259.5,379.7c.38-1.42.72-2.72,1-3.94.66-2.56,1.4-5.39,1.89-7,1.14-1.23,3.12-3.24,4.92-5.06l2.91-2.94A62.51,62.51,0,0,0,286,301.38c-.37-1.41-.72-2.71-1-3.92-.69-2.61-1.46-5.5-1.84-7.16.38-1.68,1.16-4.6,1.86-7.25.31-1.18.65-2.45,1-3.83a62.46,62.46,0,0,0-15.63-59.28l-2.76-2.81c-1.85-1.88-3.9-3.95-5.05-5.2-.49-1.64-1.23-4.51-1.91-7.1-.31-1.2-.65-2.5-1-3.9a61.69,61.69,0,0,0-43.13-43.7h-.11l-3.75-1c-2.44-.66-5.13-1.39-6.75-1.88-1.23-1.18-3.22-3.21-5-5-.84-.86-1.73-1.78-2.71-2.77a60.87,60.87,0,0,0-59.47-16.31h0l-3.77,1c-2.4.66-5,1.39-6.69,1.79V23.88A23.94,23.94,0,0,1,152,0H384V112a16,16,0,0,0,16,16Z"/><path class="cls-2" d="M505,105,407.11,7a24,24,0,0,0-17-7H384V112a16,16,0,0,0,16,16H512v-6.1A23.9,23.9,0,0,0,505,105ZM255,271.09a30.14,30.14,0,0,0-7.58-28.79C232.57,227.18,234,229.69,228.57,209a29.57,29.57,0,0,0-20.71-21c-20.28-5.53-17.84-4.1-32.69-19.21A28.92,28.92,0,0,0,146.89,161c-20.32,5.54-17.46,5.53-37.75,0a28.92,28.92,0,0,0-28.28,7.71c-14.91,15.18-12.5,13.7-32.68,19.21A29.53,29.53,0,0,0,27.47,209c-5.46,20.74-4,18.13-18.87,33.27A30.15,30.15,0,0,0,1,271.09c5.45,20.71,5.42,17.79,0,38.41a30.12,30.12,0,0,0,7.58,28.78C23.45,353.39,22,350.89,27.47,371.55a29.54,29.54,0,0,0,20.71,21.07c14.3,3.9,11.52,3,15.83,5V512l64-32,64,32V397.63c4.31-2,1.52-1.1,15.84-5a29.53,29.53,0,0,0,20.7-21.07c5.47-20.74,4-18.13,18.88-33.27A30.12,30.12,0,0,0,255,309.51c-5.43-20.65-5.44-17.74,0-38.42ZM128,352a64,64,0,1,1,64-64A64,64,0,0,1,128,352Z"/></g></g></svg>