<svg xmlns="http://www.w3.org/2000/svg" viewBox="0 0 512 384"><defs><style>.cls-1,.cls-2{fill:#ef7818;}.cls-1{opacity:0.4;isolation:isolate;}</style></defs><g id="Layer_2" data-name="Layer 2"><g id="Layer_1-2" data-name="Layer 1"><path class="cls-1" d="M512,336v32a16,16,0,0,1-16,16H32A32,32,0,0,1,0,352V16A16,16,0,0,1,16,0H48A16,16,0,0,1,64,16V320H496A16,16,0,0,1,512,336Z"/><path class="cls-2" d="M480,48V166.05c0,21.38-25.85,32.09-41,17l-32.4-32.4-96,96a32,32,0,0,1-45.25,0L192,173.25l-46.06,46.07a16,16,0,0,1-22.63,0h0L100.69,196.7a16,16,0,0,1,0-22.63h0l68.69-68.69a32,32,0,0,1,45.25,0L288,178.75l73.37-73.38L329,73c-15.12-15.12-4.41-41,17-41H464A16,16,0,0,1,480,48Z"/></g></g></svg>