<svg xmlns="http://www.w3.org/2000/svg" viewBox="0 0 543.98 512.05"><defs><style>.cls-1,.cls-2{fill:#ef7818;}.cls-1{opacity:0.4;isolation:isolate;}</style></defs><g id="Layer_2" data-name="Layer 2"><g id="Layer_1-2" data-name="Layer 1"><path class="cls-1" d="M379.86,443.9c6.85,6.85,6.33,18.48-1.57,24.08A238.08,238.08,0,0,1,243,512C114.83,513.62,4.5,408.54.14,280.4-4.1,155.63,87,51.52,206.16,34.68,215.61,33.34,224,41.19,224,50.74V288Z"/><path class="cls-2" d="M512,223.23C503.72,103.77,408.26,8.31,288.8,0,279.68-.56,272,7.13,272,16.27V240H495.77C504.91,240,512.59,232.35,512,223.23ZM527.79,288H290.5l158,158c6,6,16,6.53,22.19.68a239.51,239.51,0,0,0,73.13-140.86C545.19,296.42,537.34,288,527.79,288Z"/></g></g></svg>