<svg xmlns="http://www.w3.org/2000/svg" viewBox="0 0 512 448"><defs><style>.cls-1,.cls-2{fill:#ef7818;}.cls-1{opacity:0.4;isolation:isolate;}</style></defs><g id="Layer_2" data-name="Layer 2"><g id="Layer_1-2" data-name="Layer 1"><path class="cls-1" d="M496,192H176a16,16,0,0,0-16,16v32a16,16,0,0,0,16,16H496a16,16,0,0,0,16-16V208A16,16,0,0,0,496,192Zm0-160H176a16,16,0,0,0-16,16V80a16,16,0,0,0,16,16H496a16,16,0,0,0,16-16V48A16,16,0,0,0,496,32Zm0,320H176a16,16,0,0,0-16,16v32a16,16,0,0,0,16,16H496a16,16,0,0,0,16-16V368A16,16,0,0,0,496,352Z"/><path class="cls-2" d="M61.77,369l17.5-20.15a19.94,19.94,0,0,0,5.07-14.19v-3.31C84.34,324,80.5,320,73,320H16a8,8,0,0,0-8,8v16a8,8,0,0,0,8,8H38.83a158.42,158.42,0,0,0-11,12.31l-5.61,7c-4,5.07-5.25,10.13-2.8,14.88l1,1.93c3,5.76,6.29,7.88,12.25,7.88h4.73c10.33,0,15.94,2.44,15.94,9.09,0,4.72-4.2,8.22-14.36,8.22a41.48,41.48,0,0,1-15.47-3.12c-6.49-3.88-11.74-3.5-15.6,3.12l-5.59,9.31C-1.35,428.75-.82,434.34,5,438.56c7.71,4.69,20.38,9.44,37,9.44,34.16,0,48.5-22.75,48.5-44.12C90.47,389.5,81.38,374.12,61.77,369ZM16,128H80a8,8,0,0,0,8-8V104a8,8,0,0,0-8-8H64V8a8,8,0,0,0-8-8H32a8,8,0,0,0-7.14,4.42l-8,16A8,8,0,0,0,24,32h8V96H16a8,8,0,0,0-8,8v16A8,8,0,0,0,16,128ZM12.09,288H80a8,8,0,0,0,8-8V264a8,8,0,0,0-8-8H41.32c3.29-10.29,48.34-18.68,48.34-56.44,0-29.06-25-39.56-44.47-39.56-21.36,0-33.8,10-40.46,18.75-4.37,5.59-3,10.84,2.8,15.37L16.11,201c5.61,4.56,11,2.47,16.12-2.44a13.48,13.48,0,0,1,9.46-3.84c3.33,0,9.28,1.56,9.28,8.75,0,12.72-51,21.84-51,69.12v4C0,284,5.08,288,12.09,288Z"/></g></g></svg>