<svg xmlns="http://www.w3.org/2000/svg" viewBox="0 0 448 512"><defs><style>.cls-1,.cls-2{fill:#ef7818;}.cls-1{opacity:0.4;isolation:isolate;}</style></defs><g id="Layer_2" data-name="Layer 2"><g id="Layer_1-2" data-name="Layer 1"><path class="cls-1" d="M448,73.14v45.72C448,159.14,347.67,192,224,192S0,159.14,0,118.86V73.14C0,32.86,100.33,0,224,0S448,32.86,448,73.14Z"/><path class="cls-2" d="M0,336V438.86C0,479.14,100.33,512,224,512s224-32.86,224-73.14V336c-48.13,33.14-136.21,48.57-224,48.57S48.12,369.14,0,336ZM224,224.57c-87.79,0-175.88-15.43-224-48.57V278.86C0,319.14,100.33,352,224,352s224-32.86,224-73.14V176C399.87,209.14,311.79,224.57,224,224.57Z"/></g></g></svg>