<svg xmlns="http://www.w3.org/2000/svg" viewBox="0 0 512 512"><defs><style>.cls-1,.cls-2{fill:#ef7818;}.cls-1{opacity:0.4;isolation:isolate;}</style></defs><g id="Layer_2" data-name="Layer 2"><g id="Layer_1-2" data-name="Layer 1"><path class="cls-1" d="M320,24V192h87.7c17.8,0,26.7,21.5,14.1,34.1L269.7,378.3a19.37,19.37,0,0,1-27.3,0L90.1,226.1C77.5,213.5,86.4,192,104.2,192H192V24A23.94,23.94,0,0,1,215.88,0H296a23.94,23.94,0,0,1,24,23.88Z"/><path class="cls-2" d="M488,352H341.3l-49,49a51.24,51.24,0,0,1-72.46.14l-.14-.14-49-49H24A23.94,23.94,0,0,0,0,375.88V488a23.94,23.94,0,0,0,23.88,24H488a23.94,23.94,0,0,0,24-23.88V376a23.94,23.94,0,0,0-23.88-24ZM368,448a16,16,0,1,1,16-16A16,16,0,0,1,368,448Zm64,0a16,16,0,1,1,16-16A16,16,0,0,1,432,448Z"/></g></g></svg>