<svg xmlns="http://www.w3.org/2000/svg" viewBox="0 0 576 384"><defs><style>.cls-1,.cls-2{fill:#ef7818;}.cls-1{opacity:0.4;isolation:isolate;}</style></defs><g id="Layer_2" data-name="Layer 2"><g id="Layer_1-2" data-name="Layer 1"><path class="cls-1" d="M572.52,177.4C518.29,71.59,410.93,0,288,0S57.68,71.64,3.48,177.41a32.35,32.35,0,0,0,0,29.19C57.71,312.41,165.07,384,288,384s230.32-71.64,284.52-177.41A32.35,32.35,0,0,0,572.52,177.4ZM288.14,336H288a143.93,143.93,0,1,1,.14,0Z"/><path class="cls-2" d="M380.66,216.87a95.78,95.78,0,0,1-185-49.66c0-.18.09-.35.14-.52a47.85,47.85,0,0,0,66.9-66.9,95.3,95.3,0,0,1,118,117.08Z"/></g></g></svg>