<svg xmlns="http://www.w3.org/2000/svg" viewBox="0 0 576 448"><defs><style>.cls-1,.cls-2{fill:#ef7818;}.cls-1{opacity:0.4;isolation:isolate;}</style></defs><g id="Layer_2" data-name="Layer 2"><g id="Layer_1-2" data-name="Layer 1"><path class="cls-1" d="M288,0C128.94,0,0,128.94,0,288A286.44,286.44,0,0,0,39.06,432.8c5.61,9.62,16.3,15.2,27.44,15.2h443c11.14,0,21.83-5.58,27.44-15.2A286.44,286.44,0,0,0,576,288C576,128.94,447.06,0,288,0ZM432,128a32,32,0,1,1-32,32A32,32,0,0,1,432,128ZM288,64a32,32,0,1,1-32,32A32,32,0,0,1,288,64ZM96,352a32,32,0,1,1,32-32A32,32,0,0,1,96,352Zm48-160a32,32,0,1,1,32-32A32,32,0,0,1,144,192ZM484,343.67,350,366a66,66,0,0,1-6.9,18H232.88a63.77,63.77,0,0,1,109.49-65.39l133.68-22.28a24,24,0,0,1,7.9,47.34Z"/><path class="cls-2" d="M288,288a63.77,63.77,0,0,1,54.37,30.61l133.68-22.28a24,24,0,0,1,7.9,47.34L350,366a66,66,0,0,1-6.9,18H232.88A63.59,63.59,0,0,1,288,288Z"/></g></g></svg>