<svg xmlns="http://www.w3.org/2000/svg" viewBox="0 0 640 512"><defs><style>.cls-1,.cls-2{fill:#ef7818;}.cls-1{opacity:0.4;isolation:isolate;}</style></defs><g id="Layer_2" data-name="Layer 2"><g id="Layer_1-2" data-name="Layer 1"><path class="cls-1" d="M624,0H592a16,16,0,0,0-16,16V160H64V16A16,16,0,0,0,48,0H16A16,16,0,0,0,0,16V512H64V480H576v32h64V16A16,16,0,0,0,624,0ZM576,416H64V224H576Z"/><path class="cls-2" d="M208,256H112a16,16,0,0,0-16,16v96a16,16,0,0,0,16,16h96a16,16,0,0,0,16-16V272A16,16,0,0,0,208,256ZM464,0H368a16,16,0,0,0-16,16v96a16,16,0,0,0,16,16h96a16,16,0,0,0,16-16V16A16,16,0,0,0,464,0ZM368,256H272a16,16,0,0,0-16,16v96a16,16,0,0,0,16,16h96a16,16,0,0,0,16-16V272A16,16,0,0,0,368,256Z"/></g></g></svg>