<svg xmlns="http://www.w3.org/2000/svg" viewBox="0 0 640 511.97"><defs><style>.cls-1,.cls-2{fill:#ef7818;}.cls-1{opacity:0.4;isolation:isolate;}</style></defs><g id="Layer_2" data-name="Layer 2"><g id="Layer_1-2" data-name="Layer 1"><path class="cls-1" d="M319.45,0C217.44.31,144,83,144,176a175,175,0,0,0,43.56,115.78c16.52,18.85,42.36,58.22,52.21,91.44a4.73,4.73,0,0,0,.11.78H400.12a5.84,5.84,0,0,1,.11-.78c9.85-33.22,35.69-72.59,52.21-91.44A175,175,0,0,0,496,176C496,78.63,416.91-.31,319.45,0ZM320,96a80.09,80.09,0,0,0-80,80,16,16,0,0,1-32,0A112.12,112.12,0,0,1,320,64a16,16,0,0,1,0,32Z"/><path class="cls-2" d="M240.06,454.34A32,32,0,0,0,245.42,472l17.1,25.69c5.23,7.91,17.17,14.28,26.64,14.28h61.7c9.47,0,21.41-6.37,26.64-14.28L394.59,472A37.41,37.41,0,0,0,400,454.34V416H240ZM112,192a24,24,0,0,0-24-24H24a24,24,0,0,0,0,48H88A24,24,0,0,0,112,192Zm504-24H552a24,24,0,0,0,0,48h64a24,24,0,0,0,0-48ZM131.08,55.22l-55.42-32A24,24,0,0,0,50.9,64.34c.25.15.5.3.76.44l55.42,32a24,24,0,1,0,24.76-41.12C131.59,55.51,131.34,55.36,131.08,55.22Zm457.26,264-55.42-32a24,24,0,1,0-24.76,41.12c.25.15.5.3.76.44l55.42,32a24,24,0,0,0,24-41.56Zm-481.26-32-55.42,32a24,24,0,1,0,23.24,42c.26-.14.51-.29.76-.44l55.42-32a24,24,0,0,0-24-41.56ZM520.94,100a23.75,23.75,0,0,0,12-3.22l55.42-32a24,24,0,0,0-24-41.56l-55.42,32a24,24,0,0,0,12,44.78Z"/></g></g></svg>