<svg xmlns="http://www.w3.org/2000/svg" viewBox="0 0 512.04 512.04"><defs><style>.cls-1,.cls-2{fill:#ef7818;}.cls-1{opacity:0.4;isolation:isolate;}</style></defs><g id="Layer_2" data-name="Layer 2"><g id="Layer_1-2" data-name="Layer 1"><path class="cls-1" d="M44.47,252.61l37.11-37.1c9.84-9.84,26.78-3.3,27.29,10.6a184.28,184.28,0,0,0,9.69,52.72,16.08,16.08,0,0,1-3.78,16.61l-13.09,13.09c-28,28-28.9,73.66-1.15,102a72.08,72.08,0,0,0,101.92.91l.4-.4L270,343.81A72,72,0,0,0,270,242a75.64,75.64,0,0,0-10.34-8.57,16,16,0,0,1-7-12.6A39.85,39.85,0,0,1,264.47,191l21.06-21a16.06,16.06,0,0,1,20.58-1.74A152.07,152.07,0,0,1,327,400l-.36.37-67.2,67.2c-59.27,59.27-155.7,59.26-215,0s-59.26-155.72,0-215Z"/><path class="cls-2" d="M410.35,203.51c28-28,28.9-73.66,1.15-102a72.07,72.07,0,0,0-101.92-.89l-.4.4L242,168.23A72,72,0,0,0,242,270a75.16,75.16,0,0,0,10.34,8.57,16,16,0,0,1,6.94,12.6A39.8,39.8,0,0,1,247.57,321l-21.06,21.05a16.07,16.07,0,0,1-20.58,1.74A152,152,0,0,1,185,112l.36-.37,67.2-67.2c59.27-59.27,155.7-59.26,215,0s59.27,155.7,0,215l-37.11,37.1c-9.84,9.84-26.78,3.3-27.29-10.6a184.62,184.62,0,0,0-9.69-52.72,16.07,16.07,0,0,1,3.78-16.61Z"/></g></g></svg>