<svg xmlns="http://www.w3.org/2000/svg" viewBox="0 0 511.96 512.05"><defs><style>.cls-1,.cls-2{fill:#ef7818;}.cls-1{opacity:0.4;isolation:isolate;}</style></defs><g id="Layer_2" data-name="Layer 2"><g id="Layer_1-2" data-name="Layer 1"><path class="cls-1" d="M208,80a128,128,0,1,1-90.51,37.49A128,128,0,0,1,208,80m0-80C93.12,0,0,93.12,0,208S93.12,416,208,416s208-93.12,208-208S322.88,0,208,0Z"/><path class="cls-2" d="M292,180H236V124a12,12,0,0,0-12-12H192a12,12,0,0,0-12,12v56H124a12,12,0,0,0-12,12v32a12,12,0,0,0,12,12h56v56a12,12,0,0,0,12,12h32a12,12,0,0,0,12-12V236h56a12,12,0,0,0,12-12V192A12,12,0,0,0,292,180ZM505,442.7,405.3,343a24,24,0,0,0-17-7H372l-36,36v16.3a24,24,0,0,0,7,17L442.7,505a23.9,23.9,0,0,0,33.8.1l.1-.1,28.3-28.3A24.11,24.11,0,0,0,505,442.7Z"/></g></g></svg>