<svg width="35" height="35" viewBox="0 0 35 35" fill="none" xmlns="http://www.w3.org/2000/svg">
<path d="M17.5 14.5833C11.8635 14.5833 7.29167 19.1538 7.29167 24.7917C7.29167 30.4296 11.8635 35 17.5 35C23.1365 35 27.7083 30.4296 27.7083 24.7917C27.7083 19.1538 23.1365 14.5833 17.5 14.5833ZM17.5 32.0833C13.4721 32.0833 10.2083 28.8181 10.2083 24.7917C10.2083 20.7652 13.4721 17.5 17.5 17.5C21.5279 17.5 24.7917 20.7652 24.7917 24.7917C24.7917 28.8181 21.5279 32.0833 17.5 32.0833ZM19.6642 25.7906L21.875 23.6658L18.8373 23.2473L17.5 20.4881L16.1627 23.2473L13.125 23.6658L15.3358 25.7906L14.7977 28.8094L17.5 27.3627L20.2038 28.8094L19.6642 25.7906ZM18.4406 11.7148L26.25 0L30.625 2.91667L23.7373 13.246C22.1433 12.3813 20.3452 11.8504 18.4406 11.7148V11.7148ZM11.2627 13.246L4.375 2.91667L8.75 0L16.5594 11.7148C14.6548 11.8504 12.8567 12.3813 11.2627 13.246V13.246Z" fill="#FFFCFC"/>
</svg>
