<svg xmlns="http://www.w3.org/2000/svg" viewBox="0 0 639.96 511.89"><defs><style>.cls-1,.cls-2{fill:#ef7818;}.cls-1{opacity:0.4;isolation:isolate;}</style></defs><g id="Layer_2" data-name="Layer 2"><g id="Layer_1-2" data-name="Layer 1"><path class="cls-1" d="M395.27,284.1a63.53,63.53,0,0,1-58,.39c-31.26-15.74-44-54.16-28.52-85.64l6.74-13.65a127.2,127.2,0,0,1,66.39-61.67l7.52-3.07L263.5,8.92a35.33,35.33,0,0,0-46.93,0L4.78,196.42a14.17,14.17,0,0,0-1.23,20L22.34,237.7a14.2,14.2,0,0,0,20,1.25L64,219.87V384a32,32,0,0,0,32,32H325.42l31.43-31.5a30,30,0,0,0,6.95-10.64l20.71-51.5,11.76-29.25C395.79,290.13,395.46,287.12,395.27,284.1ZM224,272a16,16,0,0,1-16,16H144a16,16,0,0,1-16-16V208a16,16,0,0,1,16-16h64a16,16,0,0,1,16,16Z"/><path class="cls-2" d="M393.53,385.74a61.91,61.91,0,0,1-14.18,21.49l-50,50.11a32,32,0,0,0,45.18,45.28L434,443.23a64.53,64.53,0,0,0,14.2-21.5l13.5-33.79c-55.29-60.29-38.7-41.79-47.4-53.69ZM528,96a48,48,0,1,0-48-48A48,48,0,0,0,528,96ZM622.4,245.06l-23.29-11.8-9.7-29.38c-14.7-44.61-55.7-75.81-102.19-75.9-36-.09-55.88,10.09-93.28,25.2a95.42,95.42,0,0,0-49.7,46.2L337.54,213a32.12,32.12,0,0,0,14.2,42.9,31.54,31.54,0,0,0,42.35-14l.14-.27L401,228a31.82,31.82,0,0,1,16.49-15.4l26.8-10.79-15.2,60.69A64.24,64.24,0,0,0,444,321.25l59.9,65.39a64.47,64.47,0,0,1,14.88,27.7L537,487.63a32,32,0,0,0,62.1-15.5l-22.2-89A63.8,63.8,0,0,0,562,355.45l-45.5-49.7,17.2-68.69,5.5,16.49a63.73,63.73,0,0,0,31.7,37l23.3,11.81a31.55,31.55,0,0,0,42.36-14.05c0-.09.09-.17.13-.26A32.37,32.37,0,0,0,622.4,245.06Z"/></g></g></svg>