<svg xmlns="http://www.w3.org/2000/svg" viewBox="0 0 576.02 512.2"><defs><style>.cls-1,.cls-2{fill:#ef7818;}.cls-1{opacity:0.4;isolation:isolate;}</style></defs><g id="Layer_2" data-name="Layer 2"><g id="Layer_1-2" data-name="Layer 1"><path class="cls-1" d="M128,361V112.7a15.8,15.8,0,0,1,15.59-16h.71c43.2,2,95.3,13.2,155.2,42.4,140.6,68.5,223.7,62.9,252.9,57.2,18-3.8,31.3,18.1,18.6,32.4-78.1,88.2-179.8,108.8-184.1,109.6-134.8,26.1-153.3,7.5-237.1,37.5-10.6,3.8-21.8-3.6-21.8-14.8Z"/><path class="cls-2" d="M0,56.2a56,56,0,1,1,80,50.4V504.2a8,8,0,0,1-8,8H40a8,8,0,0,1-8-8V106.6A56,56,0,0,1,0,56.2Z"/></g></g></svg>