<svg xmlns="http://www.w3.org/2000/svg" viewBox="0 0 672 512"><defs><style>.cls-1,.cls-2{fill:#ef7818;}.cls-1{opacity:0.4;isolation:isolate;}</style></defs><g id="Layer_2" data-name="Layer 2"><g id="Layer_1-2" data-name="Layer 1"><path class="cls-1" d="M366.86,433.14A159.33,159.33,0,0,1,333.33,384H64v96a32,32,0,0,0,32,32H416a32,32,0,0,0,32-32v-3.2a159.8,159.8,0,0,1-81.14-43.66ZM368,96a16,16,0,0,1-16-16V0H96A32,32,0,0,0,64,32V224H352a163.92,163.92,0,0,1,14.88-17.14A159.85,159.85,0,0,1,448,163.2V96Z"/><path class="cls-2" d="M368,96h80V91.42a17.92,17.92,0,0,0-5.25-12.67L369.32,5.25A18,18,0,0,0,356.57,0H352V80A16,16,0,0,0,368,96ZM352,224H64V192A64,64,0,0,0,0,256V368a16,16,0,0,0,16,16H333.33c-.24-.57-.5-1.14-.74-1.71A159.92,159.92,0,0,1,352,224ZM667.31,462.06,589.9,384.65A126.65,126.65,0,0,0,608,320,128,128,0,1,0,480,448c23.7,0,45.61-6.88,64.65-18.11l77.41,77.42a16,16,0,0,0,22.63,0h0l22.62-22.62a16,16,0,0,0,0-22.63ZM480,384a64,64,0,1,1,64-64A64,64,0,0,1,480,384Z"/></g></g></svg>