<svg xmlns="http://www.w3.org/2000/svg" viewBox="0 0 307.6 307.64"><defs><style>.cls-1{fill:#ef7818;}</style></defs><g id="Layer_2" data-name="Layer 2"><g id="Layer_1-2" data-name="Layer 1"><path id="search-plus" class="cls-1" d="M182.6,115.29v19.23a7.23,7.23,0,0,1-7.21,7.21H141.73v33.66a7.23,7.23,0,0,1-7.21,7.22H115.29a7.23,7.23,0,0,1-7.21-7.22V141.73H74.42a7.23,7.23,0,0,1-7.21-7.21V115.29a7.23,7.23,0,0,1,7.21-7.21h33.66V74.42a7.23,7.23,0,0,1,7.21-7.21h19.23a7.23,7.23,0,0,1,7.21,7.21v33.66h33.66A7.23,7.23,0,0,1,182.6,115.29Zm120.81,171.1-17,17a14.37,14.37,0,0,1-20.31.06l-.06-.06-60-59.92a14.46,14.46,0,0,1-4.21-10.22v-9.8a125,125,0,1,1,21.64-21.64h9.8A14.46,14.46,0,0,1,243.49,206L303.41,266A14.54,14.54,0,0,1,303.41,286.39ZM206.64,124.91a81.74,81.74,0,1,0-81.73,81.73h0A81.66,81.66,0,0,0,206.64,125Z"/></g></g></svg>