<svg xmlns="http://www.w3.org/2000/svg" viewBox="0 0 512 512"><defs><style>.cls-1,.cls-2{fill:#ef7818;}.cls-1{opacity:0.4;isolation:isolate;}</style></defs><g id="Layer_2" data-name="Layer 2"><g id="Layer_1-2" data-name="Layer 1"><path class="cls-1" d="M512,384v96a32,32,0,0,1-32,32H32c-2.76,0-5.24-.91-7.8-1.57L182.63,352H224v56a8,8,0,0,0,8,8h16a8,8,0,0,0,8-8V352h64v56a8,8,0,0,0,8,8h16a8,8,0,0,0,8-8V352h64v56a8,8,0,0,0,8,8h16a8,8,0,0,0,8-8V352h32A32,32,0,0,1,512,384ZM160,288H104a8,8,0,0,1-8-8V264a8,8,0,0,1,8-8h56V192H104a8,8,0,0,1-8-8V168a8,8,0,0,1,8-8h56V96H104a8,8,0,0,1-8-8V72a8,8,0,0,1,8-8h56V32A32,32,0,0,0,128,0H32A32,32,0,0,0,0,32V480c0,2.77.91,5.24,1.57,7.8L160,329.38Z"/><path class="cls-2" d="M96,264v16a8,8,0,0,0,8,8h56V256H104A8,8,0,0,0,96,264ZM96,72V88a8,8,0,0,0,8,8h56V64H104A8,8,0,0,0,96,72Zm0,96v16a8,8,0,0,0,8,8h56V160H104A8,8,0,0,0,96,168ZM416,352v56a8,8,0,0,0,8,8h16a8,8,0,0,0,8-8V352ZM224,408a8,8,0,0,0,8,8h16a8,8,0,0,0,8-8V352H224Zm96,0a8,8,0,0,0,8,8h16a8,8,0,0,0,8-8V352H320Z"/></g></g></svg>