<svg xmlns="http://www.w3.org/2000/svg" viewBox="0 0 435.82 437.46"><defs><style>.cls-1{fill:#ef7818;}.cls-2{fill:#fff;}.cls-3{fill:#fbc99f;}</style></defs><g id="Layer_2" data-name="Layer 2"><g id="Layer_1-2" data-name="Layer 1"><path class="cls-1" d="M217.34,0S345.82-5.74,413.91,123.38H206.42s-39.19-1.29-72.6,46.25c-9.63,19.92-19.91,40.47-8.34,80.94C108.77,222.31,36.82,97,36.82,97S87.58,5.18,217.34,0Z"/><path class="cls-1" d="M407.22,327.87S348,442,202.11,436.4c18-31.14,103.77-179.68,103.77-179.68s20.71-33.29-3.75-86C289.7,152.43,277,133.25,236.21,123c32.84-.33,177.29,0,177.29,0S467.67,212.93,407.22,327.87Z"/><path class="cls-1" d="M28.37,328.74S-40.85,220.34,37,96.83L140.66,276.55s18.47,34.58,76.34,39.76c22.06-1.61,45-3,74.28-33.23-16.13,28.6-88.67,153.52-88.67,153.52S97.68,438.56,28.37,328.74Z"/><path class="cls-2" d="M202.11,437.46l29.18-121.79s32.09-2.51,59-32C273.58,313,202.11,437.46,202.11,437.46Z"/><path class="cls-2" d="M119.59,220.09a97.22,97.22,0,1,1,97.22,97.22A97.21,97.21,0,0,1,119.59,220.09Z"/><path class="cls-3" d="M135.86,220.09a80.95,80.95,0,1,1,80.95,81A80.94,80.94,0,0,1,135.86,220.09Z"/><path class="cls-2" d="M413.5,123,293.32,158.28S275.2,131.68,236.21,123C270,122.9,413.5,123,413.5,123Z"/><path class="cls-2" d="M123.14,246.2C106.25,217,36.83,97,36.83,97l89,88.07s-9.15,18.82-5.68,45.7Z"/></g></g></svg>