<svg xmlns="http://www.w3.org/2000/svg" viewBox="0 0 480 511.97"><defs><style>.cls-1,.cls-2{fill:#ef7818;}.cls-1{opacity:0.4;isolation:isolate;}</style></defs><g id="Layer_2" data-name="Layer 2"><g id="Layer_1-2" data-name="Layer 1"><path class="cls-1" d="M450.5,83.68l-192-80a48.06,48.06,0,0,0-36.9,0l-192,80A48,48,0,0,0,0,128C0,326.51,114.5,463.7,221.5,508.3a48.15,48.15,0,0,0,36.9,0C344.1,472.59,480,349.28,480,128A48,48,0,0,0,450.5,83.68ZM403.3,197.89l-184,184a16.07,16.07,0,0,1-22.6,0l-104-104a16.07,16.07,0,0,1,0-22.61l22.6-22.6a16.06,16.06,0,0,1,22.6,0l70.1,70.1,150.1-150.1a16.06,16.06,0,0,1,22.6,0l22.6,22.6a15.89,15.89,0,0,1,.14,22.47,1.85,1.85,0,0,0-.14.14Z"/><path class="cls-2" d="M403.3,197.89l-184,184a16.07,16.07,0,0,1-22.6,0l-104-104a16.07,16.07,0,0,1,0-22.61l22.6-22.6a16.06,16.06,0,0,1,22.6,0l70.1,70.1,150.1-150.1a16.06,16.06,0,0,1,22.6,0l22.6,22.6a15.89,15.89,0,0,1,.14,22.47,1.85,1.85,0,0,0-.14.14Z"/></g></g></svg>