<svg xmlns="http://www.w3.org/2000/svg" viewBox="0 0 512 448"><defs><style>.cls-1,.cls-2{fill:#ef7818;}.cls-1{opacity:0.4;isolation:isolate;}</style></defs><g id="Layer_2" data-name="Layer 2"><g id="Layer_1-2" data-name="Layer 1"><path class="cls-1" d="M488.12,320H23.94A23.94,23.94,0,0,0,0,343.88V424a23.94,23.94,0,0,0,23.88,24H488.06A23.94,23.94,0,0,0,512,424.12V344a23.94,23.94,0,0,0-23.88-24ZM464,400H48V368H464Zm24.12-240H23.94A23.94,23.94,0,0,0,0,183.88V264a23.94,23.94,0,0,0,23.88,24H488.06A23.94,23.94,0,0,0,512,264.12V184a23.94,23.94,0,0,0-23.88-24ZM464,240H48V208H464ZM488.12,0H23.94A23.94,23.94,0,0,0,0,23.88V104a23.94,23.94,0,0,0,23.88,24H488.06A23.94,23.94,0,0,0,512,104.12V24A23.94,23.94,0,0,0,488.12,0ZM464,80H48V48H464Z"/><path class="cls-2" d="M48,48V80H352V48ZM160,208H48v32H160ZM48,400H288V368H48Z"/></g></g></svg>