<svg xmlns="http://www.w3.org/2000/svg" viewBox="0 0 384 512"><defs><style>.cls-1,.cls-2{fill:#ef7818;}.cls-1{opacity:0.4;isolation:isolate;}</style></defs><g id="Layer_2" data-name="Layer 2"><g id="Layer_1-2" data-name="Layer 1"><path class="cls-1" d="M384,128H272a16,16,0,0,1-16-16V0H24A23.94,23.94,0,0,0,0,23.88H0V488a23.94,23.94,0,0,0,23.88,24H360a23.94,23.94,0,0,0,24-23.88h0ZM289.18,352H224v80a16,16,0,0,1-16,16H176a16,16,0,0,1-16-16V352H94.82c-14.28,0-21.41-17.29-11.27-27.36L180,229a17.06,17.06,0,0,1,24,0l96.43,95.65C310.58,334.72,303.43,352,289.18,352Z"/><path class="cls-2" d="M377,105,279.1,7a24,24,0,0,0-17-7H256V112a16,16,0,0,0,16,16H384v-6.1A23.9,23.9,0,0,0,377,105ZM204,229a17.06,17.06,0,0,0-24,0L83.55,324.64C73.41,334.71,80.54,352,94.82,352H160v80a16,16,0,0,0,16,16h32a16,16,0,0,0,16-16V352h65.18c14.25,0,21.4-17.29,11.25-27.36Z"/></g></g></svg>