<svg xmlns="http://www.w3.org/2000/svg" viewBox="0 0 352 512"><defs><style>.cls-1,.cls-2{fill:#ef7818;}.cls-1{opacity:0.4;isolation:isolate;}</style></defs><g id="Layer_2" data-name="Layer 2"><g id="Layer_1-2" data-name="Layer 1"><path class="cls-1" d="M176,80A176,176,0,1,0,352,256,176,176,0,0,0,176,80Zm71.8,219.8L229,325.7a11.91,11.91,0,0,1-16.62,2.73l-.18-.13-59.3-43.2a12,12,0,0,1-4.9-9.7V160a12,12,0,0,1,12-12h32a12,12,0,0,1,12,12v93l41.2,30a12.08,12.08,0,0,1,2.6,16.8Z"/><path class="cls-2" d="M192,148H160a12,12,0,0,0-12,12V275.4a12,12,0,0,0,4.9,9.7l59.3,43.2.18.13A11.91,11.91,0,0,0,229,325.7l18.8-25.9a12.08,12.08,0,0,0-2.6-16.8L204,253V160A12,12,0,0,0,192,148ZM176,432A175.47,175.47,0,0,1,48,376.79V488a23.94,23.94,0,0,0,23.88,24H280a23.94,23.94,0,0,0,24-23.88h0V376.79A175.47,175.47,0,0,1,176,432ZM280.12,0H72A23.94,23.94,0,0,0,48,23.88h0V135.21A176,176,0,0,1,296.8,128q3.7,3.5,7.2,7.2V24A23.94,23.94,0,0,0,280.12,0Z"/></g></g></svg>